HIERARCHY
ROOT hip
{
	OFFSET 0.000000 0.000000 0.000000 
	CHANNELS 6 Xposition Yposition Zposition Xrotation Zrotation Yrotation
	JOINT abdomen
	{
		OFFSET 0.000000 3.402643 0.000000 
		CHANNELS 3 Xrotation Zrotation Yrotation
		JOINT chest
		{
			OFFSET 0.000000 8.438565 -0.680529 
			CHANNELS 3 Xrotation Zrotation Yrotation
			JOINT neck
			{
				OFFSET 0.000000 10.207942 -0.272212 
				CHANNELS 3 Xrotation Zrotation Yrotation
				JOINT head
				{
					OFFSET 0.000000 3.130431 0.000000 
					CHANNELS 3 Xrotation Zrotation Yrotation
					End Site
					{
						OFFSET 0.000000 3.130435 0.000000 
					}
				}
			}
			JOINT lCollar
			{
				OFFSET 3.470700 6.669187 -0.816635 
				CHANNELS 3 Yrotation Zrotation Xrotation
				JOINT lShldr
				{
					OFFSET 3.198488 0.000000 0.000000 
					CHANNELS 3 Zrotation Yrotation Xrotation
					JOINT lForeArm
					{
						OFFSET 10.139888 0.000000 0.000000 
						CHANNELS 3 Yrotation Zrotation Xrotation
						JOINT lHand
						{
							OFFSET 8.370511 0.000000 0.000000 
							CHANNELS 3 Zrotation Yrotation Xrotation
							End Site
							{
								OFFSET 4.083176 0.000000 0.000000 
							}
						}
					}
				}
			}
			JOINT rCollar
			{
				OFFSET -3.470700 6.669187 -0.816635 
				CHANNELS 3 Yrotation Zrotation Xrotation
				JOINT rShldr
				{
					OFFSET -3.198488 0.000000 0.000000 
					CHANNELS 3 Zrotation Yrotation Xrotation
					JOINT rForeArm
					{
						OFFSET -10.139888 0.000000 0.000000 
						CHANNELS 3 Yrotation Zrotation Xrotation
						JOINT rHand
						{
							OFFSET -8.370511 0.000000 0.000000 
							CHANNELS 3 Zrotation Yrotation Xrotation
							End Site
							{
								OFFSET -4.083176 0.000000 0.000000 
							}
						}
					}
				}
			}
		}
	}
	JOINT lThigh
	{
		OFFSET 5.308129 -1.633274 1.361059 
		CHANNELS 3 Xrotation Zrotation Yrotation
		JOINT lShin
		{
			OFFSET -2.041588 -20.007561 0.000000 
			CHANNELS 3 Xrotation Zrotation Yrotation
			JOINT lFoot
			{
				OFFSET 0.000000 -19.190928 -1.224953 
				CHANNELS 3 Xrotation Yrotation Zrotation
				End Site
				{
					OFFSET 0.000000 -2.449906 4.627600 
				}
			}
		}
	}
	JOINT rThigh
	{
		OFFSET -5.308129 -1.633274 1.361059 
		CHANNELS 3 Xrotation Zrotation Yrotation
		JOINT rShin
		{
			OFFSET 2.041588 -20.007561 0.000000 
			CHANNELS 3 Xrotation Zrotation Yrotation
			JOINT rFoot
			{
				OFFSET 0.000000 -19.190928 -1.224953 
				CHANNELS 3 Xrotation Yrotation Zrotation
				End Site
				{
					OFFSET 0.000000 -2.449906 4.627600 
				}
			}
		}
	}
}
MOTION
Frames: 15
Frame Time: 0.016667
0.419215 43.012722 0.953122 -0.528559 3.886550 -4.059180 -21.116501 -0.839759 2.878530 17.439800 1.842970 1.198540 48.591202 -5.007080 2.038470 -8.603520 0.000000 0.000000 2.000000 -2.000000 0.000000 93.779800 176.264008 6.231990 22.949499 -0.340743 0.053369 5.377830 -1.427270 -134.557999 -2.000000 2.000000 0.000000 -90.761002 -173.636002 2.903700 -30.303101 0.332885 0.068992 5.706300 3.499420 -146.113007 7.596672 -6.361709 1.832070 0.777620 4.195423 -0.057363 -12.682494 14.382905 3.406761 2.138541 -5.829921 -4.036633 10.468344 -6.702174 -0.533639 -16.603668 -2.558520 0.081042 
0.426888 43.017262 0.958815 -0.645987 3.847410 -4.076450 -21.096399 -0.844503 2.921560 17.371401 1.813600 1.217500 48.553902 -5.016920 1.980390 -8.603520 0.000000 0.000000 2.000000 -2.000000 0.000000 93.828598 176.274994 5.899980 23.027599 -0.340670 0.053540 5.382940 -1.410500 -134.714996 -2.000000 2.000000 0.000000 -90.682899 -173.606995 2.620420 -30.244499 0.332955 0.068871 5.715180 3.476410 -145.947998 7.802766 -6.330344 1.838535 0.640241 4.198408 -0.076727 -12.494567 14.401934 3.357284 2.241164 -5.771231 -3.931633 10.518546 -6.750360 -0.529467 -16.639666 -2.600272 0.112528 
0.431376 43.008949 0.960502 -0.665385 3.613040 -4.094580 -21.065901 -0.829978 2.988210 17.391300 1.647870 1.256580 48.611198 -5.053560 1.693110 -8.603520 0.000000 0.000000 2.000000 -2.000000 0.000000 94.072899 176.292999 6.398070 23.086201 -0.340616 0.053669 5.387920 -1.389510 -134.988998 -2.000000 2.000000 0.000000 -90.497299 -173.636993 2.405650 -30.146799 0.333073 0.068670 5.731010 3.448600 -145.664993 7.882716 -6.079290 1.812918 0.590451 4.196328 -0.056985 -12.654214 14.378187 3.410841 2.370949 -5.549355 -3.949165 10.335166 -6.618502 -0.515744 -16.572081 -2.566090 0.055801 
0.435872 43.016090 0.960171 -0.685030 3.710670 -4.106740 -21.055799 -0.856272 3.029390 17.352100 1.686810 1.272800 48.605000 -4.954510 1.752300 -8.603520 0.000000 0.000000 2.000000 -2.000000 0.000000 94.131599 176.223999 6.847130 23.203400 -0.340506 0.053926 5.383660 -1.411220 -134.744003 -2.000000 2.000000 0.000000 -90.409401 -173.735001 2.181290 -30.068701 0.333166 0.068508 5.745190 3.433680 -145.498993 7.840275 -6.154469 2.044522 0.706325 4.198140 -0.057078 -12.437089 14.214945 3.328427 2.432501 -5.611017 -3.677890 10.242955 -6.617151 -0.513190 -16.629278 -2.798308 -0.019548 
0.456713 43.020115 0.964291 -0.763370 3.769200 -4.102810 -21.026800 -0.869154 3.022850 17.332600 1.686780 1.272230 48.581600 -4.894750 1.832790 -8.603520 0.000000 0.000000 2.000000 -2.000000 0.000000 94.092400 176.272995 6.661690 23.076401 -0.340625 0.053647 5.372120 -1.443430 -134.382004 -2.000000 2.000000 0.000000 -90.468002 -173.675995 2.161610 -30.029600 0.333213 0.068428 5.735120 3.445760 -145.597000 7.926867 -6.271589 1.851015 0.668813 4.194407 -0.057092 -12.564098 14.305168 3.360568 2.443515 -5.663042 -3.583480 10.402481 -6.714221 -0.534020 -16.787554 -2.817453 0.031567 
0.460904 43.016747 0.956464 -0.743747 3.710630 -4.012880 -21.027700 -0.838433 2.937830 17.322701 1.755020 1.229020 48.536701 -4.821820 1.959510 -8.603520 0.000000 0.000000 2.000000 -2.000000 0.000000 94.043602 176.292999 6.661740 23.115499 -0.340588 0.053733 5.372950 -1.448280 -134.302994 -2.000000 2.000000 0.000000 -90.565697 -173.705002 2.317930 -30.039400 0.333201 0.068448 5.733610 3.458660 -145.712997 7.863410 -6.148154 2.090919 0.745832 4.201204 -0.057202 -12.456330 14.105188 3.296347 2.501952 -5.501175 -3.390760 10.252954 -6.727278 -0.511520 -16.676956 -3.291043 -0.074140 
0.464382 43.014927 0.957873 -0.694793 3.681370 -4.067960 -21.056499 -0.779994 2.926790 17.293200 1.842710 1.232890 48.657600 -4.704740 2.066810 -8.603520 0.000000 0.000000 2.000000 -2.000000 0.000000 93.985001 176.263000 6.671440 23.086201 -0.340616 0.053669 5.374760 -1.454110 -134.264008 -2.000000 2.000000 0.000000 -90.614502 -173.714996 2.239830 -29.971001 0.333283 0.068307 5.731600 3.448190 -145.656006 7.853805 -6.128706 2.094721 0.677855 4.202845 -0.057155 -12.477193 14.068014 3.301511 2.481408 -5.606584 -3.587750 10.204699 -6.567829 -0.508808 -16.620798 -2.917905 -0.074729 
0.466835 43.015575 0.961016 -0.714310 3.613000 -4.078130 -21.027000 -0.734740 2.908430 17.322500 1.881770 1.231630 48.674400 -4.829330 1.959680 -8.603520 0.000000 0.000000 2.000000 -2.000000 0.000000 93.985100 176.320999 6.905940 23.056900 -0.340643 0.053605 5.378700 -1.432180 -134.479996 -2.000000 2.000000 0.000000 -90.653603 -173.714996 2.269130 -30.000299 0.333248 0.068367 5.722670 3.459470 -145.733002 7.876969 -6.043654 2.162402 0.676420 4.193184 -0.056931 -12.478711 14.041923 3.287910 2.476037 -5.432729 -3.247108 10.291090 -6.614696 -0.514047 -16.753647 -3.284751 -0.139480 
0.475235 43.020115 0.958625 -0.636009 3.583760 -4.072880 -21.035900 -0.726627 2.957930 17.342100 1.842800 1.253990 48.857899 -4.886930 1.756570 -8.603520 0.000000 0.000000 2.000000 -2.000000 0.000000 94.033997 176.389999 7.013510 23.076401 -0.340625 0.053647 5.377580 -1.427030 -134.548004 -2.000000 2.000000 0.000000 -90.614502 -173.735001 2.259420 -30.078400 0.333154 0.068529 5.716370 3.475610 -145.927994 7.752421 -6.008309 2.251515 0.775228 4.205797 -0.057302 -12.457324 14.059948 3.294618 2.491292 -5.469457 -3.230641 9.999104 -6.452656 -0.496842 -16.650288 -3.221397 -0.200263 
0.479901 43.021679 0.963775 -0.724190 3.730170 -4.129050 -20.987400 -0.757930 2.957910 17.361500 1.901340 1.251360 48.826599 -5.028340 1.678470 -8.603520 0.000000 0.000000 2.000000 -2.000000 0.000000 93.994904 176.341003 6.915750 23.193600 -0.340515 0.053905 5.376690 -1.422100 -134.626007 -2.000000 2.000000 0.000000 -90.673103 -173.753998 2.396180 -30.058901 0.333178 0.068488 5.706170 3.487710 -146.026001 7.792169 -6.167401 2.353256 0.880522 4.195465 -0.037609 -12.533323 13.943718 3.289365 2.430769 -5.632899 -3.412910 10.323750 -6.635653 -0.507180 -16.698490 -3.077403 -0.066264 
0.487374 43.019596 0.972639 -0.655657 3.691170 -4.133920 -21.035299 -0.731159 3.001520 17.361601 1.881840 1.271980 48.849400 -4.897920 1.733480 -8.603520 0.000000 0.000000 2.000000 -2.000000 0.000000 94.073097 176.330002 7.237990 23.164301 -0.340542 0.053840 5.388190 -1.393840 -134.880997 -2.000000 2.000000 0.000000 -90.575401 -173.667007 2.210410 -30.078400 0.333154 0.068529 5.722080 3.459880 -145.742996 7.750366 -6.148449 2.301764 0.823970 4.196751 -0.047477 -12.574739 13.933254 3.289271 2.421611 -5.627496 -3.373150 10.239902 -6.549847 -0.518417 -16.659508 -3.120834 -0.122465 
0.480995 43.008308 0.978185 -0.714265 3.554410 -4.165290 -21.025000 -0.678840 3.001890 17.341999 1.881800 1.281100 48.723400 -4.759780 1.889040 -8.603520 0.000000 0.000000 2.000000 -2.000000 0.000000 94.209900 176.192993 7.638080 23.369400 -0.340349 0.054290 5.398670 -1.356340 -135.350998 -2.000000 2.000000 0.000000 -90.555901 -173.638000 2.083390 -29.990601 0.333259 0.068347 5.731600 3.448190 -145.656006 7.856351 -5.976159 2.291641 0.764742 4.197795 -0.057144 -12.586809 13.972889 3.310907 2.430910 -5.441600 -3.209108 10.346022 -6.510941 -0.527544 -16.775076 -3.139920 -0.136678 
0.474865 43.014927 0.970746 -0.704541 3.632540 -4.136350 -21.015400 -0.715407 3.015630 17.332199 1.920780 1.278590 48.580399 -4.799630 1.800750 -8.603520 0.000000 0.000000 2.000000 -2.000000 0.000000 94.161003 176.251999 7.315940 23.379200 -0.340340 0.054311 5.391960 -1.367540 -135.233994 -2.000000 2.000000 0.000000 -90.555901 -173.666000 2.444790 -30.185900 0.333026 0.068750 5.707360 3.486910 -146.005997 7.783165 -6.040560 2.400705 0.918714 4.196997 -0.047403 -12.565566 13.813938 3.269620 2.360318 -5.481114 -3.165025 10.432703 -6.575701 -0.534095 -16.786917 -3.319798 -0.159889 
0.479406 43.015835 0.972146 -0.743674 3.622740 -4.158230 -21.005699 -0.691587 2.995710 17.322300 1.950020 1.276610 48.571301 -5.058270 1.741300 -8.603520 0.000000 0.000000 2.000000 -2.000000 0.000000 94.121902 176.173996 7.315770 23.447500 -0.340275 0.054461 5.400210 -1.361950 -135.292007 -2.000000 2.000000 0.000000 -90.555901 -173.656998 2.259220 -30.107700 0.333119 0.068589 5.716370 3.475610 -145.927994 7.868093 -6.060496 2.298825 0.812387 4.198762 -0.057136 -12.647490 13.954712 3.322737 2.408123 -5.462084 -3.182148 10.440623 -6.636014 -0.529137 -16.858145 -3.378020 -0.150846 
0.474086 43.012981 0.970754 -0.724158 3.691110 -4.128560 -21.006300 -0.744019 2.995040 17.322399 1.940270 1.267400 48.737400 -5.073610 1.771640 -8.603520 0.000000 0.000000 2.000000 -2.000000 0.000000 94.170700 176.134995 7.149670 23.525700 -0.340201 0.054632 5.397590 -1.351170 -135.429001 -2.000000 2.000000 0.000000 -90.516800 -173.598007 2.268830 -30.176100 0.333038 0.068730 5.721700 3.471970 -145.841003 7.789989 -6.106032 2.459585 0.881182 4.205048 -0.047544 -12.505270 13.848071 3.257515 2.354450 -5.601086 -3.353413 10.507285 -6.585819 -0.535584 -16.867414 -3.066668 -0.087697 
